<mxfile host="app.diagrams.net" modified="2023-11-27T14:58:44.318Z" agent="Mozilla/5.0 (Macintosh; Intel Mac OS X 10_15_7) AppleWebKit/537.36 (KHTML, like Gecko) Chrome/119.0.0.0 Safari/537.36" etag="Cchpjjl2ikIculXMKxoU" version="22.1.4" type="device">
  <diagram name="Page-1" id="c6ULYRJbMacHf6gsnAbh">
    <mxGraphModel dx="1536" dy="976" grid="1" gridSize="10" guides="1" tooltips="1" connect="1" arrows="1" fold="1" page="1" pageScale="1" pageWidth="827" pageHeight="1169" math="0" shadow="0">
      <root>
        <mxCell id="0" />
        <mxCell id="1" parent="0" />
        <mxCell id="mFkeYZRiV0pnB3qkLlJm-2" value="31/11/23&lt;br&gt;&lt;br&gt;&lt;br&gt;7/12/23" style="ellipse;whiteSpace=wrap;html=1;aspect=fixed;" vertex="1" parent="1">
          <mxGeometry x="10" y="60" width="120" height="120" as="geometry" />
        </mxCell>
        <mxCell id="mFkeYZRiV0pnB3qkLlJm-3" value="01/01/24&lt;br style=&quot;border-color: var(--border-color);&quot;&gt;&lt;br style=&quot;border-color: var(--border-color);&quot;&gt;&lt;br style=&quot;border-color: var(--border-color);&quot;&gt;08/01/24" style="ellipse;whiteSpace=wrap;html=1;aspect=fixed;" vertex="1" parent="1">
          <mxGeometry x="685" y="720" width="110" height="110" as="geometry" />
        </mxCell>
        <mxCell id="mFkeYZRiV0pnB3qkLlJm-4" value="21/12/23&lt;br style=&quot;border-color: var(--border-color);&quot;&gt;&lt;br style=&quot;border-color: var(--border-color);&quot;&gt;&lt;br style=&quot;border-color: var(--border-color);&quot;&gt;28/12/23" style="ellipse;whiteSpace=wrap;html=1;aspect=fixed;" vertex="1" parent="1">
          <mxGeometry x="370" y="720" width="110" height="110" as="geometry" />
        </mxCell>
        <mxCell id="mFkeYZRiV0pnB3qkLlJm-5" value="21/12/23&lt;br style=&quot;border-color: var(--border-color);&quot;&gt;&lt;br style=&quot;border-color: var(--border-color);&quot;&gt;&lt;br style=&quot;border-color: var(--border-color);&quot;&gt;28/12/23" style="ellipse;whiteSpace=wrap;html=1;aspect=fixed;" vertex="1" parent="1">
          <mxGeometry x="570" y="525" width="115" height="115" as="geometry" />
        </mxCell>
        <mxCell id="mFkeYZRiV0pnB3qkLlJm-6" value="15//7/23&lt;br style=&quot;border-color: var(--border-color);&quot;&gt;&lt;br style=&quot;border-color: var(--border-color);&quot;&gt;&lt;br style=&quot;border-color: var(--border-color);&quot;&gt;22/7/23" style="ellipse;whiteSpace=wrap;html=1;aspect=fixed;" vertex="1" parent="1">
          <mxGeometry x="250" y="527" width="115" height="115" as="geometry" />
        </mxCell>
        <mxCell id="mFkeYZRiV0pnB3qkLlJm-7" value="15//7/23&lt;br&gt;&lt;br&gt;&lt;br&gt;22/7/23" style="ellipse;whiteSpace=wrap;html=1;aspect=fixed;" vertex="1" parent="1">
          <mxGeometry x="450" y="270" width="120" height="120" as="geometry" />
        </mxCell>
        <mxCell id="mFkeYZRiV0pnB3qkLlJm-8" value="11/12/23&lt;br&gt;&lt;br&gt;&lt;br&gt;17/12/23" style="ellipse;whiteSpace=wrap;html=1;aspect=fixed;" vertex="1" parent="1">
          <mxGeometry x="130" y="270" width="120" height="120" as="geometry" />
        </mxCell>
        <mxCell id="mFkeYZRiV0pnB3qkLlJm-9" value="11/12/23&lt;br&gt;&lt;br&gt;&lt;br&gt;17/11/23" style="ellipse;whiteSpace=wrap;html=1;aspect=fixed;" vertex="1" parent="1">
          <mxGeometry x="330" y="60" width="120" height="120" as="geometry" />
        </mxCell>
        <mxCell id="mFkeYZRiV0pnB3qkLlJm-10" value="" style="endArrow=none;html=1;rounded=0;exitX=1;exitY=0.5;exitDx=0;exitDy=0;entryX=0;entryY=0.5;entryDx=0;entryDy=0;" edge="1" parent="1" source="mFkeYZRiV0pnB3qkLlJm-4" target="mFkeYZRiV0pnB3qkLlJm-3">
          <mxGeometry width="50" height="50" relative="1" as="geometry">
            <mxPoint x="480" y="780" as="sourcePoint" />
            <mxPoint x="680" y="780" as="targetPoint" />
          </mxGeometry>
        </mxCell>
        <mxCell id="mFkeYZRiV0pnB3qkLlJm-11" value="" style="endArrow=none;html=1;rounded=0;entryX=0;entryY=0.5;entryDx=0;entryDy=0;exitX=1;exitY=0.5;exitDx=0;exitDy=0;" edge="1" parent="1" source="mFkeYZRiV0pnB3qkLlJm-6" target="mFkeYZRiV0pnB3qkLlJm-5">
          <mxGeometry width="50" height="50" relative="1" as="geometry">
            <mxPoint x="370" y="585" as="sourcePoint" />
            <mxPoint x="420" y="535" as="targetPoint" />
          </mxGeometry>
        </mxCell>
        <mxCell id="mFkeYZRiV0pnB3qkLlJm-12" value="" style="endArrow=none;html=1;rounded=0;entryX=0;entryY=0.5;entryDx=0;entryDy=0;exitX=1;exitY=0.5;exitDx=0;exitDy=0;" edge="1" parent="1" source="mFkeYZRiV0pnB3qkLlJm-8" target="mFkeYZRiV0pnB3qkLlJm-7">
          <mxGeometry width="50" height="50" relative="1" as="geometry">
            <mxPoint x="250" y="340" as="sourcePoint" />
            <mxPoint x="300" y="290" as="targetPoint" />
          </mxGeometry>
        </mxCell>
        <mxCell id="mFkeYZRiV0pnB3qkLlJm-13" value="" style="endArrow=none;html=1;rounded=0;entryX=0;entryY=0.5;entryDx=0;entryDy=0;" edge="1" parent="1" target="mFkeYZRiV0pnB3qkLlJm-9">
          <mxGeometry width="50" height="50" relative="1" as="geometry">
            <mxPoint x="130" y="120" as="sourcePoint" />
            <mxPoint x="180" y="70" as="targetPoint" />
          </mxGeometry>
        </mxCell>
        <mxCell id="mFkeYZRiV0pnB3qkLlJm-14" value="Data Collection &amp;amp; Pre-processing&lt;br&gt;" style="text;html=1;align=center;verticalAlign=middle;resizable=0;points=[];autosize=1;strokeColor=none;fillColor=none;" vertex="1" parent="1">
          <mxGeometry x="130" y="80" width="200" height="30" as="geometry" />
        </mxCell>
        <mxCell id="mFkeYZRiV0pnB3qkLlJm-15" value="Module A" style="text;html=1;align=center;verticalAlign=middle;resizable=0;points=[];autosize=1;strokeColor=none;fillColor=none;" vertex="1" parent="1">
          <mxGeometry x="190" y="128" width="70" height="30" as="geometry" />
        </mxCell>
        <mxCell id="mFkeYZRiV0pnB3qkLlJm-16" value="Website Development" style="text;html=1;align=center;verticalAlign=middle;resizable=0;points=[];autosize=1;strokeColor=none;fillColor=none;" vertex="1" parent="1">
          <mxGeometry x="280" y="290" width="140" height="30" as="geometry" />
        </mxCell>
        <mxCell id="mFkeYZRiV0pnB3qkLlJm-17" value="Module B" style="text;html=1;align=center;verticalAlign=middle;resizable=0;points=[];autosize=1;strokeColor=none;fillColor=none;" vertex="1" parent="1">
          <mxGeometry x="315" y="338" width="70" height="30" as="geometry" />
        </mxCell>
        <mxCell id="mFkeYZRiV0pnB3qkLlJm-18" value="AI Development" style="text;html=1;align=center;verticalAlign=middle;resizable=0;points=[];autosize=1;strokeColor=none;fillColor=none;" vertex="1" parent="1">
          <mxGeometry x="400" y="548" width="110" height="30" as="geometry" />
        </mxCell>
        <mxCell id="mFkeYZRiV0pnB3qkLlJm-19" value="Module C" style="text;html=1;align=center;verticalAlign=middle;resizable=0;points=[];autosize=1;strokeColor=none;fillColor=none;" vertex="1" parent="1">
          <mxGeometry x="420" y="598" width="70" height="30" as="geometry" />
        </mxCell>
        <mxCell id="mFkeYZRiV0pnB3qkLlJm-20" value="09/01/24&lt;br style=&quot;border-color: var(--border-color);&quot;&gt;&lt;br style=&quot;border-color: var(--border-color);&quot;&gt;&lt;br style=&quot;border-color: var(--border-color);&quot;&gt;16/01/24" style="ellipse;whiteSpace=wrap;html=1;aspect=fixed;" vertex="1" parent="1">
          <mxGeometry x="795" y="900" width="110" height="110" as="geometry" />
        </mxCell>
        <mxCell id="mFkeYZRiV0pnB3qkLlJm-21" value="01/01/24&lt;br style=&quot;border-color: var(--border-color);&quot;&gt;&lt;br style=&quot;border-color: var(--border-color);&quot;&gt;&lt;br style=&quot;border-color: var(--border-color);&quot;&gt;08/01/24" style="ellipse;whiteSpace=wrap;html=1;aspect=fixed;" vertex="1" parent="1">
          <mxGeometry x="480" y="900" width="110" height="110" as="geometry" />
        </mxCell>
        <mxCell id="mFkeYZRiV0pnB3qkLlJm-23" value="" style="endArrow=none;html=1;rounded=0;entryX=0;entryY=0.5;entryDx=0;entryDy=0;exitX=1;exitY=0.5;exitDx=0;exitDy=0;" edge="1" parent="1" source="mFkeYZRiV0pnB3qkLlJm-21" target="mFkeYZRiV0pnB3qkLlJm-20">
          <mxGeometry width="50" height="50" relative="1" as="geometry">
            <mxPoint x="590" y="960" as="sourcePoint" />
            <mxPoint x="640" y="910" as="targetPoint" />
          </mxGeometry>
        </mxCell>
        <mxCell id="mFkeYZRiV0pnB3qkLlJm-24" value="Data Modeling, Training &amp;amp; Testing" style="text;html=1;align=center;verticalAlign=middle;resizable=0;points=[];autosize=1;strokeColor=none;fillColor=none;" vertex="1" parent="1">
          <mxGeometry x="480" y="738" width="200" height="30" as="geometry" />
        </mxCell>
        <mxCell id="mFkeYZRiV0pnB3qkLlJm-25" value="Module D" style="text;html=1;align=center;verticalAlign=middle;resizable=0;points=[];autosize=1;strokeColor=none;fillColor=none;" vertex="1" parent="1">
          <mxGeometry x="545" y="788" width="70" height="30" as="geometry" />
        </mxCell>
        <mxCell id="mFkeYZRiV0pnB3qkLlJm-26" value="Integration" style="text;html=1;align=center;verticalAlign=middle;resizable=0;points=[];autosize=1;strokeColor=none;fillColor=none;" vertex="1" parent="1">
          <mxGeometry x="660" y="908" width="80" height="30" as="geometry" />
        </mxCell>
      </root>
    </mxGraphModel>
  </diagram>
</mxfile>
